<svg xmlns="http://www.w3.org/2000/svg" width="1280" height="820" viewBox="0 0 1280 820">
  <rect width="1280" height="820" fill="#f8f7f3"/>
  <text x="48" y="66" font-family="Georgia" font-size="42" fill="#111">Recruiter Evidence Search</text>
  <rect x="48" y="104" width="250" height="660" fill="#fff" stroke="#d8d4ca"/>
  <text x="72" y="146" font-family="Arial" font-size="18" font-weight="700" fill="#111">Role brief</text>
  <text x="72" y="184" font-family="Arial" font-size="15" fill="#333">Frontend Intern</text>
  <text x="72" y="226" font-family="Arial" font-size="13" fill="#666">Must have</text>
  <text x="72" y="252" font-family="Arial" font-size="15" fill="#111">React, UI, forms</text>
  <text x="72" y="300" font-family="Arial" font-size="13" fill="#666">Evidence level</text>
  <rect x="72" y="318" width="112" height="28" fill="#eef5ff" stroke="#2f6fed"/>
  <text x="86" y="337" font-family="Arial" font-size="13" fill="#2f6fed">Level 3+</text>
  <rect x="330" y="104" width="520" height="660" fill="#fff" stroke="#d8d4ca"/>
  <text x="356" y="146" font-family="Arial" font-size="18" font-weight="700" fill="#111">Candidates by relevant proof</text>
  <g>
    <rect x="356" y="178" width="468" height="142" fill="#fafafa" stroke="#d8d4ca"/>
    <text x="380" y="214" font-family="Arial" font-size="19" font-weight="700" fill="#111">Amira Tan</text>
    <text x="380" y="242" font-family="Arial" font-size="15" fill="#2f6fed">Strong evidence match</text>
    <text x="380" y="272" font-family="Arial" font-size="15" fill="#333">Proof: shipped Next.js dashboard</text>
    <text x="380" y="300" font-family="Arial" font-size="14" fill="#8a5a00">Missing: usage metrics</text>
  </g>
  <g>
    <rect x="356" y="342" width="468" height="142" fill="#fff" stroke="#d8d4ca"/>
    <text x="380" y="378" font-family="Arial" font-size="19" font-weight="700" fill="#111">Dev Malik</text>
    <text x="380" y="406" font-family="Arial" font-size="15" fill="#333">Partial evidence match</text>
    <text x="380" y="436" font-family="Arial" font-size="15" fill="#333">Proof: API prototype screenshots</text>
    <text x="380" y="464" font-family="Arial" font-size="14" fill="#8a5a00">Missing: repo link</text>
  </g>
  <rect x="882" y="104" width="350" height="660" fill="#fff" stroke="#d8d4ca"/>
  <text x="912" y="146" font-family="Arial" font-size="18" font-weight="700" fill="#111">Evidence preview</text>
  <text x="912" y="190" font-family="Arial" font-size="16" font-weight="700" fill="#111">Why Amira may be relevant</text>
  <text x="912" y="226" font-family="Arial" font-size="15" fill="#333">- React UI shown in live demo</text>
  <text x="912" y="254" font-family="Arial" font-size="15" fill="#333">- Dashboard states documented</text>
  <text x="912" y="282" font-family="Arial" font-size="15" fill="#333">- Contribution stated as solo build</text>
  <rect x="912" y="330" width="260" height="130" fill="#ebe7dc" stroke="#cfcac0"/>
  <text x="982" y="400" font-family="Arial" font-size="14" fill="#555">proof artifact</text>
  <rect x="912" y="506" width="124" height="42" fill="#111" rx="4"/>
  <text x="946" y="532" font-family="Arial" font-size="14" fill="#fff">Shortlist</text>
  <rect x="1050" y="506" width="112" height="42" fill="#fff" stroke="#111" rx="4"/>
  <text x="1082" y="532" font-family="Arial" font-size="14" fill="#111">Open</text>
</svg>

